solid OpenSCAD_Model
  facet normal -1 0 0
    outer loop
      vertex 44.995 -12.005 -2.26277
      vertex 44.995 -13.7678 -0.5
      vertex 44.995 -12.005 1.26277
    endloop
  endfacet
  facet normal -1 0 0
    outer loop
      vertex 44.995 -12.005 -2.26277
      vertex 44.995 38.005 -2.26277
      vertex 44.995 38.005 -5.005
    endloop
  endfacet
  facet normal -1 0 0
    outer loop
      vertex 44.995 38.005 -2.26277
      vertex 44.995 -12.005 -2.26277
      vertex 44.995 38.005 1.26277
    endloop
  endfacet
  facet normal -1 0 0
    outer loop
      vertex 44.995 -12.005 -2.26277
      vertex 44.995 38.005 -5.005
      vertex 44.995 -12.005 -5.005
    endloop
  endfacet
  facet normal -1 -0 0
    outer loop
      vertex 44.995 38.005 1.26277
      vertex 44.995 -12.005 -2.26277
      vertex 44.995 -12.005 1.26277
    endloop
  endfacet
  facet normal -1 0 0
    outer loop
      vertex 44.995 38.005 1.26277
      vertex 44.995 -12.005 1.26277
      vertex 44.995 38.005 5.005
    endloop
  endfacet
  facet normal -1 -0 0
    outer loop
      vertex 44.995 38.005 5.005
      vertex 44.995 -12.005 1.26277
      vertex 44.995 -12.005 5.005
    endloop
  endfacet
  facet normal -1 -0 0
    outer loop
      vertex 44.995 39.7678 -0.499999
      vertex 44.995 38.005 -2.26277
      vertex 44.995 38.005 1.26277
    endloop
  endfacet
  facet normal 0 0 1
    outer loop
      vertex 95.005 -5.59348 5.005
      vertex 81.2555 -12.005 5.005
      vertex 95.005 -12.005 5.005
    endloop
  endfacet
  facet normal -0 0 1
    outer loop
      vertex 44.995 38.005 5.005
      vertex 59.0803 9.28447 5.005
      vertex 45.6877 38.005 5.005
    endloop
  endfacet
  facet normal 0 0 1
    outer loop
      vertex 59.0803 9.28447 5.005
      vertex 44.995 38.005 5.005
      vertex 44.995 -12.005 5.005
    endloop
  endfacet
  facet normal 0 0 1
    outer loop
      vertex 59.0803 9.28447 5.005
      vertex 44.995 -12.005 5.005
      vertex 69.0077 -12.005 5.005
    endloop
  endfacet
  facet normal 1 0 0
    outer loop
      vertex 95.005 -12.005 1.26277
      vertex 95.005 -13.7678 -0.5
      vertex 95.005 -12.005 -2.26277
    endloop
  endfacet
  facet normal 1 0 0
    outer loop
      vertex 95.005 -5.59348 5.005
      vertex 95.005 38.005 1.26277
      vertex 95.005 38.005 2.24194
    endloop
  endfacet
  facet normal 1 0 0
    outer loop
      vertex 95.005 38.005 1.26277
      vertex 95.005 -5.59348 5.005
      vertex 95.005 38.005 -2.26277
    endloop
  endfacet
  facet normal 1 0 0
    outer loop
      vertex 95.005 38.005 -2.26277
      vertex 95.005 -5.59348 5.005
      vertex 95.005 38.005 -5.005
    endloop
  endfacet
  facet normal 1 0 0
    outer loop
      vertex 95.005 -12.005 1.26277
      vertex 95.005 -5.59348 5.005
      vertex 95.005 -12.005 5.005
    endloop
  endfacet
  facet normal 1 0 0
    outer loop
      vertex 95.005 -12.005 -2.26277
      vertex 95.005 -5.59348 5.005
      vertex 95.005 -12.005 1.26277
    endloop
  endfacet
  facet normal 1 0 0
    outer loop
      vertex 95.005 -12.005 -5.005
      vertex 95.005 -5.59348 5.005
      vertex 95.005 -12.005 -2.26277
    endloop
  endfacet
  facet normal 1 0 0
    outer loop
      vertex 95.005 -5.59348 5.005
      vertex 95.005 -12.005 -5.005
      vertex 95.005 38.005 -5.005
    endloop
  endfacet
  facet normal 1 0 0
    outer loop
      vertex 95.005 39.7678 -0.499999
      vertex 95.005 38.005 1.26277
      vertex 95.005 38.005 -2.26277
    endloop
  endfacet
  facet normal 0 0 -1
    outer loop
      vertex 44.995 -12.005 -5.005
      vertex 95.005 38.005 -5.005
      vertex 95.005 -12.005 -5.005
    endloop
  endfacet
  facet normal -0 0 -1
    outer loop
      vertex 95.005 38.005 -5.005
      vertex 44.995 -12.005 -5.005
      vertex 44.995 38.005 -5.005
    endloop
  endfacet
  facet normal 0 -1 0
    outer loop
      vertex 44.995 -12.005 5.005
      vertex 69.0077 -12.005 4.64305
      vertex 69.0077 -12.005 5.005
    endloop
  endfacet
  facet normal -0 -1 0
    outer loop
      vertex 69.0077 -12.005 4.64305
      vertex 44.995 -12.005 5.005
      vertex 44.995 -12.005 1.26277
    endloop
  endfacet
  facet normal 0 -1 0
    outer loop
      vertex 95.005 -12.005 1.26277
      vertex 81.2555 -12.005 5.005
      vertex 76.4243 -12.005 4.86223
    endloop
  endfacet
  facet normal 0 -1 0
    outer loop
      vertex 95.005 -12.005 1.26277
      vertex 76.4243 -12.005 4.86223
      vertex 69.0077 -12.005 4.64305
    endloop
  endfacet
  facet normal 0 -1 0
    outer loop
      vertex 95.005 -12.005 1.26277
      vertex 69.0077 -12.005 4.64305
      vertex 44.995 -12.005 1.26277
    endloop
  endfacet
  facet normal 0 -1 0
    outer loop
      vertex 81.2555 -12.005 5.005
      vertex 95.005 -12.005 1.26277
      vertex 95.005 -12.005 5.005
    endloop
  endfacet
  facet normal 0 -1 0
    outer loop
      vertex 44.995 -12.005 -5.005
      vertex 95.005 -12.005 -2.26277
      vertex 44.995 -12.005 -2.26277
    endloop
  endfacet
  facet normal 0 -1 -0
    outer loop
      vertex 95.005 -12.005 -2.26277
      vertex 44.995 -12.005 -5.005
      vertex 95.005 -12.005 -5.005
    endloop
  endfacet
  facet normal 0 1 -0
    outer loop
      vertex 95.005 38.005 -5.005
      vertex 44.995 38.005 -2.26277
      vertex 95.005 38.005 -2.26277
    endloop
  endfacet
  facet normal 0 1 0
    outer loop
      vertex 44.995 38.005 -2.26277
      vertex 95.005 38.005 -5.005
      vertex 44.995 38.005 -5.005
    endloop
  endfacet
  facet normal 0 1 -0
    outer loop
      vertex 45.6877 38.005 4.37573
      vertex 44.995 38.005 5.005
      vertex 45.6877 38.005 5.005
    endloop
  endfacet
  facet normal 0 1 0
    outer loop
      vertex 44.995 38.005 1.26277
      vertex 45.6877 38.005 4.37573
      vertex 45.6877 38.005 1.26277
    endloop
  endfacet
  facet normal 0 1 0
    outer loop
      vertex 45.6877 38.005 4.37573
      vertex 44.995 38.005 1.26277
      vertex 44.995 38.005 5.005
    endloop
  endfacet
  facet normal 0 1 -0
    outer loop
      vertex 95.005 38.005 1.26277
      vertex 77.8396 38.005 1.73466
      vertex 95.005 38.005 2.24194
    endloop
  endfacet
  facet normal 0 1 0
    outer loop
      vertex 77.8396 38.005 1.73466
      vertex 95.005 38.005 1.26277
      vertex 61.8716 38.005 1.26277
    endloop
  endfacet
  facet normal 0 0.707101 0.707113
    outer loop
      vertex 95.005 39.7678 -0.499999
      vertex 61.8716 38.005 1.26277
      vertex 95.005 38.005 1.26277
    endloop
  endfacet
  facet normal -0 0.707101 0.707113
    outer loop
      vertex 44.995 39.7678 -0.499999
      vertex 61.8716 38.005 1.26277
      vertex 95.005 39.7678 -0.499999
    endloop
  endfacet
  facet normal 1.72005e-006 0.707109 0.707105
    outer loop
      vertex 61.8716 38.005 1.26277
      vertex 44.995 39.7678 -0.499999
      vertex 45.446 38.5233 0.744507
    endloop
  endfacet
  facet normal 0 0.707082 0.707132
    outer loop
      vertex 45.446 38.5233 0.744507
      vertex 44.995 38.005 1.26277
      vertex 45.6877 38.005 1.26277
    endloop
  endfacet
  facet normal -4.37208e-005 0.707101 0.707113
    outer loop
      vertex 44.995 38.005 1.26277
      vertex 45.446 38.5233 0.744507
      vertex 44.995 39.7678 -0.499999
    endloop
  endfacet
  facet normal 0 0.707101 -0.707113
    outer loop
      vertex 44.995 38.005 -2.26277
      vertex 95.005 39.7678 -0.499999
      vertex 95.005 38.005 -2.26277
    endloop
  endfacet
  facet normal 0 0.707101 -0.707113
    outer loop
      vertex 95.005 39.7678 -0.499999
      vertex 44.995 38.005 -2.26277
      vertex 44.995 39.7678 -0.499999
    endloop
  endfacet
  facet normal 0 -0.707101 0.707113
    outer loop
      vertex 44.995 -13.7678 -0.5
      vertex 95.005 -12.005 1.26277
      vertex 44.995 -12.005 1.26277
    endloop
  endfacet
  facet normal 0 -0.707101 0.707113
    outer loop
      vertex 95.005 -12.005 1.26277
      vertex 44.995 -13.7678 -0.5
      vertex 95.005 -13.7678 -0.5
    endloop
  endfacet
  facet normal 0 -0.707101 -0.707113
    outer loop
      vertex 44.995 -12.005 -2.26277
      vertex 95.005 -13.7678 -0.5
      vertex 44.995 -13.7678 -0.5
    endloop
  endfacet
  facet normal 0 -0.707101 -0.707113
    outer loop
      vertex 95.005 -13.7678 -0.5
      vertex 44.995 -12.005 -2.26277
      vertex 95.005 -12.005 -2.26277
    endloop
  endfacet
  facet normal -0.0294805 0.0632208 0.997564
    outer loop
      vertex 77.8396 38.005 1.73466
      vertex 95.005 -5.59348 5.005
      vertex 95.005 38.005 2.24194
    endloop
  endfacet
  facet normal -0.0294803 0.0632209 0.997564
    outer loop
      vertex 76.4243 -12.005 4.86223
      vertex 95.005 -5.59348 5.005
      vertex 77.8396 38.005 1.73466
    endloop
  endfacet
  facet normal -0.0294797 0.0632192 0.997564
    outer loop
      vertex 95.005 -5.59348 5.005
      vertex 76.4243 -12.005 4.86223
      vertex 81.2555 -12.005 5.005
    endloop
  endfacet
  facet normal 0.906309 0.422615 -2.57306e-005
    outer loop
      vertex 59.0803 9.28447 5.005
      vertex 45.446 38.5233 0.744507
      vertex 45.6877 38.005 1.26277
    endloop
  endfacet
  facet normal 0.906308 0.422617 -0
    outer loop
      vertex 69.0077 -12.005 4.64305
      vertex 59.0803 9.28447 5.005
      vertex 69.0077 -12.005 5.005
    endloop
  endfacet
  facet normal 0.906308 0.422617 -1.30629e-005
    outer loop
      vertex 59.0803 9.28447 5.005
      vertex 69.0077 -12.005 4.64305
      vertex 45.446 38.5233 0.744507
    endloop
  endfacet
  facet normal 0.906308 0.422618 0
    outer loop
      vertex 45.6877 38.005 4.37573
      vertex 59.0803 9.28447 5.005
      vertex 45.6877 38.005 1.26277
    endloop
  endfacet
  facet normal 0.906308 0.422618 0
    outer loop
      vertex 45.6877 38.005 5.005
      vertex 59.0803 9.28447 5.005
      vertex 45.6877 38.005 4.37573
    endloop
  endfacet
  facet normal -0.0294806 0.0632209 0.997564
    outer loop
      vertex 77.8396 38.005 1.73466
      vertex 69.0077 -12.005 4.64305
      vertex 76.4243 -12.005 4.86223
    endloop
  endfacet
  facet normal -0.0294802 0.0632208 0.997564
    outer loop
      vertex 61.8716 38.005 1.26277
      vertex 69.0077 -12.005 4.64305
      vertex 77.8396 38.005 1.73466
    endloop
  endfacet
  facet normal -0.0294804 0.0632208 0.997564
    outer loop
      vertex 69.0077 -12.005 4.64305
      vertex 61.8716 38.005 1.26277
      vertex 45.446 38.5233 0.744507
    endloop
  endfacet
endsolid OpenSCAD_Model
